<svg id="Layer_1" data-name="Layer 1" xmlns="http://www.w3.org/2000/svg" viewBox="0 0 50 50"><defs><style>.cls-1{fill:#1a1311;}</style></defs><g id="Group_31" data-name="Group 31"><g id="Group_29" data-name="Group 29"><path id="Path_11" data-name="Path 11" class="cls-1" d="M0,19.87A19.88,19.88,0,0,1,19.88,0h0A19.87,19.87,0,0,1,39.75,19.87h0A19.88,19.88,0,0,1,19.88,39.75h0A19.88,19.88,0,0,1,0,19.87Zm2.66,0A17.23,17.23,0,0,0,19.88,37.09h0A17.23,17.23,0,0,0,37.09,19.87h0A17.23,17.23,0,0,0,19.88,2.66h0A17.23,17.23,0,0,0,2.66,19.87Z"/></g><g id="Group_30" data-name="Group 30"><path id="Path_12" data-name="Path 12" class="cls-1" d="M32.21,34.09l1.88-1.88L50,48.12,48.12,50,32.21,34.09Z"/></g></g></svg>